M48
; DRILL file {KiCad (6.0.4)} date Mon Jul  4 19:49:16 2022
; FORMAT={-:-/ absolute / inch / decimal}
; #@! TF.CreationDate,2022-07-04T19:49:16+02:00
; #@! TF.GenerationSoftware,Kicad,Pcbnew,(6.0.4)
; #@! TF.FileFunction,Plated,1,2,PTH
FMAT,2
INCH
; #@! TA.AperFunction,Plated,PTH,ViaDrill
T1C0.0118
; #@! TA.AperFunction,Plated,PTH,ComponentDrill
T2C0.0394
%
G90
G05
T1
X5.03Y-4.74
X5.03Y-6.07
X6.75Y-4.73
X6.75Y-6.07
T2
X5.1Y-3.3
X5.2Y-3.3
X5.3Y-3.3
X5.4Y-3.3
X5.5Y-3.3
X5.6Y-3.3
X5.7Y-3.3
X5.8Y-3.3
X5.9Y-3.3
X6.0Y-3.3
X6.1Y-3.3
X6.2Y-3.3
X6.3Y-3.3
X6.4Y-3.3
X6.5Y-3.3
X6.6Y-3.3
X6.7Y-3.3
T0
M30
