%TF.GenerationSoftware,KiCad,Pcbnew,(6.0.4)*%
%TF.CreationDate,2022-07-04T19:49:19+02:00*%
%TF.ProjectId,NDS Card Reader,4e445320-4361-4726-9420-526561646572,rev?*%
%TF.SameCoordinates,Original*%
%TF.FileFunction,Legend,Top*%
%TF.FilePolarity,Positive*%
%FSLAX46Y46*%
G04 Gerber Fmt 4.6, Leading zero omitted, Abs format (unit mm)*
G04 Created by KiCad (PCBNEW (6.0.4)) date 2022-07-04 19:49:19*
%MOMM*%
%LPD*%
G01*
G04 APERTURE LIST*
%ADD10C,0.100000*%
%ADD11C,0.150000*%
%ADD12C,0.200000*%
%ADD13C,0.250000*%
%ADD14C,0.120000*%
G04 APERTURE END LIST*
D10*
X126492000Y-152400000D02*
X129032000Y-152400000D01*
X129032000Y-152400000D02*
X129032000Y-155702000D01*
X129032000Y-155702000D02*
X126492000Y-155702000D01*
X126492000Y-155702000D02*
X126492000Y-152400000D01*
X170180000Y-152400000D02*
X172720000Y-152400000D01*
X172720000Y-152400000D02*
X172720000Y-155702000D01*
X172720000Y-155702000D02*
X170180000Y-155702000D01*
X170180000Y-155702000D02*
X170180000Y-152400000D01*
X126492000Y-118618000D02*
X129032000Y-118618000D01*
X129032000Y-118618000D02*
X129032000Y-121920000D01*
X129032000Y-121920000D02*
X126492000Y-121920000D01*
X126492000Y-121920000D02*
X126492000Y-118618000D01*
X170180000Y-118364000D02*
X172720000Y-118364000D01*
X172720000Y-118364000D02*
X172720000Y-121666000D01*
X172720000Y-121666000D02*
X170180000Y-121666000D01*
X170180000Y-121666000D02*
X170180000Y-118364000D01*
D11*
X169926000Y-118359153D02*
X129300000Y-118359153D01*
X129300000Y-118359153D02*
X129300000Y-156464000D01*
X129300000Y-156464000D02*
X169926000Y-156464000D01*
X169926000Y-156464000D02*
X169926000Y-118359153D01*
D12*
X143960952Y-81641904D02*
X143960952Y-80841904D01*
X144799047Y-81641904D02*
X144532380Y-81260952D01*
X144341904Y-81641904D02*
X144341904Y-80841904D01*
X144646666Y-80841904D01*
X144722857Y-80880000D01*
X144760952Y-80918095D01*
X144799047Y-80994285D01*
X144799047Y-81108571D01*
X144760952Y-81184761D01*
X144722857Y-81222857D01*
X144646666Y-81260952D01*
X144341904Y-81260952D01*
X145675238Y-81718095D02*
X145599047Y-81680000D01*
X145522857Y-81603809D01*
X145408571Y-81489523D01*
X145332380Y-81451428D01*
X145256190Y-81451428D01*
X145294285Y-81641904D02*
X145218095Y-81603809D01*
X145141904Y-81527619D01*
X145103809Y-81375238D01*
X145103809Y-81108571D01*
X145141904Y-80956190D01*
X145218095Y-80880000D01*
X145294285Y-80841904D01*
X145446666Y-80841904D01*
X145522857Y-80880000D01*
X145599047Y-80956190D01*
X145637142Y-81108571D01*
X145637142Y-81375238D01*
X145599047Y-81527619D01*
X145522857Y-81603809D01*
X145446666Y-81641904D01*
X145294285Y-81641904D01*
X154349523Y-81641904D02*
X154349523Y-80841904D01*
X154540000Y-80841904D01*
X154654285Y-80880000D01*
X154730476Y-80956190D01*
X154768571Y-81032380D01*
X154806666Y-81184761D01*
X154806666Y-81299047D01*
X154768571Y-81451428D01*
X154730476Y-81527619D01*
X154654285Y-81603809D01*
X154540000Y-81641904D01*
X154349523Y-81641904D01*
X155111428Y-80918095D02*
X155149523Y-80880000D01*
X155225714Y-80841904D01*
X155416190Y-80841904D01*
X155492380Y-80880000D01*
X155530476Y-80918095D01*
X155568571Y-80994285D01*
X155568571Y-81070476D01*
X155530476Y-81184761D01*
X155073333Y-81641904D01*
X155568571Y-81641904D01*
X136645714Y-81565714D02*
X136607619Y-81603809D01*
X136493333Y-81641904D01*
X136417142Y-81641904D01*
X136302857Y-81603809D01*
X136226666Y-81527619D01*
X136188571Y-81451428D01*
X136150476Y-81299047D01*
X136150476Y-81184761D01*
X136188571Y-81032380D01*
X136226666Y-80956190D01*
X136302857Y-80880000D01*
X136417142Y-80841904D01*
X136493333Y-80841904D01*
X136607619Y-80880000D01*
X136645714Y-80918095D01*
X136950476Y-81603809D02*
X137064761Y-81641904D01*
X137255238Y-81641904D01*
X137331428Y-81603809D01*
X137369523Y-81565714D01*
X137407619Y-81489523D01*
X137407619Y-81413333D01*
X137369523Y-81337142D01*
X137331428Y-81299047D01*
X137255238Y-81260952D01*
X137102857Y-81222857D01*
X137026666Y-81184761D01*
X136988571Y-81146666D01*
X136950476Y-81070476D01*
X136950476Y-80994285D01*
X136988571Y-80918095D01*
X137026666Y-80880000D01*
X137102857Y-80841904D01*
X137293333Y-80841904D01*
X137407619Y-80880000D01*
X138169523Y-81641904D02*
X137712380Y-81641904D01*
X137940952Y-81641904D02*
X137940952Y-80841904D01*
X137864761Y-80956190D01*
X137788571Y-81032380D01*
X137712380Y-81070476D01*
X128930476Y-80880000D02*
X128854285Y-80841904D01*
X128740000Y-80841904D01*
X128625714Y-80880000D01*
X128549523Y-80956190D01*
X128511428Y-81032380D01*
X128473333Y-81184761D01*
X128473333Y-81299047D01*
X128511428Y-81451428D01*
X128549523Y-81527619D01*
X128625714Y-81603809D01*
X128740000Y-81641904D01*
X128816190Y-81641904D01*
X128930476Y-81603809D01*
X128968571Y-81565714D01*
X128968571Y-81299047D01*
X128816190Y-81299047D01*
X129311428Y-81641904D02*
X129311428Y-80841904D01*
X129768571Y-81641904D01*
X129768571Y-80841904D01*
X130149523Y-81641904D02*
X130149523Y-80841904D01*
X130340000Y-80841904D01*
X130454285Y-80880000D01*
X130530476Y-80956190D01*
X130568571Y-81032380D01*
X130606666Y-81184761D01*
X130606666Y-81299047D01*
X130568571Y-81451428D01*
X130530476Y-81527619D01*
X130454285Y-81603809D01*
X130340000Y-81641904D01*
X130149523Y-81641904D01*
X133515238Y-80841904D02*
X133781904Y-81641904D01*
X134048571Y-80841904D01*
X134315238Y-81641904D02*
X134315238Y-80841904D01*
X134315238Y-81222857D02*
X134772380Y-81222857D01*
X134772380Y-81641904D02*
X134772380Y-80841904D01*
X135153333Y-81641904D02*
X135153333Y-80841904D01*
X135153333Y-81222857D02*
X135610476Y-81222857D01*
X135610476Y-81641904D02*
X135610476Y-80841904D01*
X131603809Y-81565714D02*
X131565714Y-81603809D01*
X131451428Y-81641904D01*
X131375238Y-81641904D01*
X131260952Y-81603809D01*
X131184761Y-81527619D01*
X131146666Y-81451428D01*
X131108571Y-81299047D01*
X131108571Y-81184761D01*
X131146666Y-81032380D01*
X131184761Y-80956190D01*
X131260952Y-80880000D01*
X131375238Y-80841904D01*
X131451428Y-80841904D01*
X131565714Y-80880000D01*
X131603809Y-80918095D01*
X132327619Y-81641904D02*
X131946666Y-81641904D01*
X131946666Y-80841904D01*
X132594285Y-81641904D02*
X132594285Y-80841904D01*
X133051428Y-81641904D02*
X132708571Y-81184761D01*
X133051428Y-80841904D02*
X132594285Y-81299047D01*
X149269523Y-81641904D02*
X149269523Y-80841904D01*
X149460000Y-80841904D01*
X149574285Y-80880000D01*
X149650476Y-80956190D01*
X149688571Y-81032380D01*
X149726666Y-81184761D01*
X149726666Y-81299047D01*
X149688571Y-81451428D01*
X149650476Y-81527619D01*
X149574285Y-81603809D01*
X149460000Y-81641904D01*
X149269523Y-81641904D01*
X150221904Y-80841904D02*
X150298095Y-80841904D01*
X150374285Y-80880000D01*
X150412380Y-80918095D01*
X150450476Y-80994285D01*
X150488571Y-81146666D01*
X150488571Y-81337142D01*
X150450476Y-81489523D01*
X150412380Y-81565714D01*
X150374285Y-81603809D01*
X150298095Y-81641904D01*
X150221904Y-81641904D01*
X150145714Y-81603809D01*
X150107619Y-81565714D01*
X150069523Y-81489523D01*
X150031428Y-81337142D01*
X150031428Y-81146666D01*
X150069523Y-80994285D01*
X150107619Y-80918095D01*
X150145714Y-80880000D01*
X150221904Y-80841904D01*
X141725714Y-81565714D02*
X141687619Y-81603809D01*
X141573333Y-81641904D01*
X141497142Y-81641904D01*
X141382857Y-81603809D01*
X141306666Y-81527619D01*
X141268571Y-81451428D01*
X141230476Y-81299047D01*
X141230476Y-81184761D01*
X141268571Y-81032380D01*
X141306666Y-80956190D01*
X141382857Y-80880000D01*
X141497142Y-80841904D01*
X141573333Y-80841904D01*
X141687619Y-80880000D01*
X141725714Y-80918095D01*
X142030476Y-81603809D02*
X142144761Y-81641904D01*
X142335238Y-81641904D01*
X142411428Y-81603809D01*
X142449523Y-81565714D01*
X142487619Y-81489523D01*
X142487619Y-81413333D01*
X142449523Y-81337142D01*
X142411428Y-81299047D01*
X142335238Y-81260952D01*
X142182857Y-81222857D01*
X142106666Y-81184761D01*
X142068571Y-81146666D01*
X142030476Y-81070476D01*
X142030476Y-80994285D01*
X142068571Y-80918095D01*
X142106666Y-80880000D01*
X142182857Y-80841904D01*
X142373333Y-80841904D01*
X142487619Y-80880000D01*
X142792380Y-80918095D02*
X142830476Y-80880000D01*
X142906666Y-80841904D01*
X143097142Y-80841904D01*
X143173333Y-80880000D01*
X143211428Y-80918095D01*
X143249523Y-80994285D01*
X143249523Y-81070476D01*
X143211428Y-81184761D01*
X142754285Y-81641904D01*
X143249523Y-81641904D01*
X151809523Y-81641904D02*
X151809523Y-80841904D01*
X152000000Y-80841904D01*
X152114285Y-80880000D01*
X152190476Y-80956190D01*
X152228571Y-81032380D01*
X152266666Y-81184761D01*
X152266666Y-81299047D01*
X152228571Y-81451428D01*
X152190476Y-81527619D01*
X152114285Y-81603809D01*
X152000000Y-81641904D01*
X151809523Y-81641904D01*
X153028571Y-81641904D02*
X152571428Y-81641904D01*
X152800000Y-81641904D02*
X152800000Y-80841904D01*
X152723809Y-80956190D01*
X152647619Y-81032380D01*
X152571428Y-81070476D01*
X161969523Y-81641904D02*
X161969523Y-80841904D01*
X162160000Y-80841904D01*
X162274285Y-80880000D01*
X162350476Y-80956190D01*
X162388571Y-81032380D01*
X162426666Y-81184761D01*
X162426666Y-81299047D01*
X162388571Y-81451428D01*
X162350476Y-81527619D01*
X162274285Y-81603809D01*
X162160000Y-81641904D01*
X161969523Y-81641904D01*
X163150476Y-80841904D02*
X162769523Y-80841904D01*
X162731428Y-81222857D01*
X162769523Y-81184761D01*
X162845714Y-81146666D01*
X163036190Y-81146666D01*
X163112380Y-81184761D01*
X163150476Y-81222857D01*
X163188571Y-81299047D01*
X163188571Y-81489523D01*
X163150476Y-81565714D01*
X163112380Y-81603809D01*
X163036190Y-81641904D01*
X162845714Y-81641904D01*
X162769523Y-81603809D01*
X162731428Y-81565714D01*
X146139047Y-80841904D02*
X146634285Y-80841904D01*
X146367619Y-81146666D01*
X146481904Y-81146666D01*
X146558095Y-81184761D01*
X146596190Y-81222857D01*
X146634285Y-81299047D01*
X146634285Y-81489523D01*
X146596190Y-81565714D01*
X146558095Y-81603809D01*
X146481904Y-81641904D01*
X146253333Y-81641904D01*
X146177142Y-81603809D01*
X146139047Y-81565714D01*
X146977142Y-81565714D02*
X147015238Y-81603809D01*
X146977142Y-81641904D01*
X146939047Y-81603809D01*
X146977142Y-81565714D01*
X146977142Y-81641904D01*
X147281904Y-80841904D02*
X147777142Y-80841904D01*
X147510476Y-81146666D01*
X147624761Y-81146666D01*
X147700952Y-81184761D01*
X147739047Y-81222857D01*
X147777142Y-81299047D01*
X147777142Y-81489523D01*
X147739047Y-81565714D01*
X147700952Y-81603809D01*
X147624761Y-81641904D01*
X147396190Y-81641904D01*
X147320000Y-81603809D01*
X147281904Y-81565714D01*
X148005714Y-80841904D02*
X148272380Y-81641904D01*
X148539047Y-80841904D01*
X159429523Y-81641904D02*
X159429523Y-80841904D01*
X159620000Y-80841904D01*
X159734285Y-80880000D01*
X159810476Y-80956190D01*
X159848571Y-81032380D01*
X159886666Y-81184761D01*
X159886666Y-81299047D01*
X159848571Y-81451428D01*
X159810476Y-81527619D01*
X159734285Y-81603809D01*
X159620000Y-81641904D01*
X159429523Y-81641904D01*
X160572380Y-81108571D02*
X160572380Y-81641904D01*
X160381904Y-80803809D02*
X160191428Y-81375238D01*
X160686666Y-81375238D01*
X164509523Y-81641904D02*
X164509523Y-80841904D01*
X164700000Y-80841904D01*
X164814285Y-80880000D01*
X164890476Y-80956190D01*
X164928571Y-81032380D01*
X164966666Y-81184761D01*
X164966666Y-81299047D01*
X164928571Y-81451428D01*
X164890476Y-81527619D01*
X164814285Y-81603809D01*
X164700000Y-81641904D01*
X164509523Y-81641904D01*
X165652380Y-80841904D02*
X165500000Y-80841904D01*
X165423809Y-80880000D01*
X165385714Y-80918095D01*
X165309523Y-81032380D01*
X165271428Y-81184761D01*
X165271428Y-81489523D01*
X165309523Y-81565714D01*
X165347619Y-81603809D01*
X165423809Y-81641904D01*
X165576190Y-81641904D01*
X165652380Y-81603809D01*
X165690476Y-81565714D01*
X165728571Y-81489523D01*
X165728571Y-81299047D01*
X165690476Y-81222857D01*
X165652380Y-81184761D01*
X165576190Y-81146666D01*
X165423809Y-81146666D01*
X165347619Y-81184761D01*
X165309523Y-81222857D01*
X165271428Y-81299047D01*
D13*
X147423523Y-138072761D02*
X147566380Y-138120380D01*
X147804476Y-138120380D01*
X147899714Y-138072761D01*
X147947333Y-138025142D01*
X147994952Y-137929904D01*
X147994952Y-137834666D01*
X147947333Y-137739428D01*
X147899714Y-137691809D01*
X147804476Y-137644190D01*
X147614000Y-137596571D01*
X147518761Y-137548952D01*
X147471142Y-137501333D01*
X147423523Y-137406095D01*
X147423523Y-137310857D01*
X147471142Y-137215619D01*
X147518761Y-137168000D01*
X147614000Y-137120380D01*
X147852095Y-137120380D01*
X147994952Y-137168000D01*
X148899714Y-138120380D02*
X148423523Y-138120380D01*
X148423523Y-137120380D01*
X149423523Y-137120380D02*
X149614000Y-137120380D01*
X149709238Y-137168000D01*
X149804476Y-137263238D01*
X149852095Y-137453714D01*
X149852095Y-137787047D01*
X149804476Y-137977523D01*
X149709238Y-138072761D01*
X149614000Y-138120380D01*
X149423523Y-138120380D01*
X149328285Y-138072761D01*
X149233047Y-137977523D01*
X149185428Y-137787047D01*
X149185428Y-137453714D01*
X149233047Y-137263238D01*
X149328285Y-137168000D01*
X149423523Y-137120380D01*
X150137809Y-137120380D02*
X150709238Y-137120380D01*
X150423523Y-138120380D02*
X150423523Y-137120380D01*
X151042571Y-137739428D02*
X151804476Y-137739428D01*
X152804476Y-138120380D02*
X152233047Y-138120380D01*
X152518761Y-138120380D02*
X152518761Y-137120380D01*
X152423523Y-137263238D01*
X152328285Y-137358476D01*
X152233047Y-137406095D01*
D12*
X156889523Y-81641904D02*
X156889523Y-80841904D01*
X157080000Y-80841904D01*
X157194285Y-80880000D01*
X157270476Y-80956190D01*
X157308571Y-81032380D01*
X157346666Y-81184761D01*
X157346666Y-81299047D01*
X157308571Y-81451428D01*
X157270476Y-81527619D01*
X157194285Y-81603809D01*
X157080000Y-81641904D01*
X156889523Y-81641904D01*
X157613333Y-80841904D02*
X158108571Y-80841904D01*
X157841904Y-81146666D01*
X157956190Y-81146666D01*
X158032380Y-81184761D01*
X158070476Y-81222857D01*
X158108571Y-81299047D01*
X158108571Y-81489523D01*
X158070476Y-81565714D01*
X158032380Y-81603809D01*
X157956190Y-81641904D01*
X157727619Y-81641904D01*
X157651428Y-81603809D01*
X157613333Y-81565714D01*
X169570476Y-80880000D02*
X169494285Y-80841904D01*
X169380000Y-80841904D01*
X169265714Y-80880000D01*
X169189523Y-80956190D01*
X169151428Y-81032380D01*
X169113333Y-81184761D01*
X169113333Y-81299047D01*
X169151428Y-81451428D01*
X169189523Y-81527619D01*
X169265714Y-81603809D01*
X169380000Y-81641904D01*
X169456190Y-81641904D01*
X169570476Y-81603809D01*
X169608571Y-81565714D01*
X169608571Y-81299047D01*
X169456190Y-81299047D01*
X169951428Y-81641904D02*
X169951428Y-80841904D01*
X170408571Y-81641904D01*
X170408571Y-80841904D01*
X170789523Y-81641904D02*
X170789523Y-80841904D01*
X170980000Y-80841904D01*
X171094285Y-80880000D01*
X171170476Y-80956190D01*
X171208571Y-81032380D01*
X171246666Y-81184761D01*
X171246666Y-81299047D01*
X171208571Y-81451428D01*
X171170476Y-81527619D01*
X171094285Y-81603809D01*
X170980000Y-81641904D01*
X170789523Y-81641904D01*
X139162334Y-81641904D02*
X138895668Y-81260952D01*
X138705192Y-81641904D02*
X138705192Y-80841904D01*
X139009953Y-80841904D01*
X139086144Y-80880000D01*
X139124239Y-80918095D01*
X139162334Y-80994285D01*
X139162334Y-81108571D01*
X139124239Y-81184761D01*
X139086144Y-81222857D01*
X139009953Y-81260952D01*
X138705192Y-81260952D01*
X139505192Y-81222857D02*
X139771858Y-81222857D01*
X139886144Y-81641904D02*
X139505192Y-81641904D01*
X139505192Y-80841904D01*
X139886144Y-80841904D01*
X140190906Y-81603809D02*
X140305192Y-81641904D01*
X140495668Y-81641904D01*
X140571858Y-81603809D01*
X140609953Y-81565714D01*
X140648049Y-81489523D01*
X140648049Y-81413333D01*
X140609953Y-81337142D01*
X140571858Y-81299047D01*
X140495668Y-81260952D01*
X140343287Y-81222857D01*
X140267096Y-81184761D01*
X140229001Y-81146666D01*
X140190906Y-81070476D01*
X140190906Y-80994285D01*
X140229001Y-80918095D01*
X140267096Y-80880000D01*
X140343287Y-80841904D01*
X140533763Y-80841904D01*
X140648049Y-80880000D01*
X167049523Y-81641904D02*
X167049523Y-80841904D01*
X167240000Y-80841904D01*
X167354285Y-80880000D01*
X167430476Y-80956190D01*
X167468571Y-81032380D01*
X167506666Y-81184761D01*
X167506666Y-81299047D01*
X167468571Y-81451428D01*
X167430476Y-81527619D01*
X167354285Y-81603809D01*
X167240000Y-81641904D01*
X167049523Y-81641904D01*
X167773333Y-80841904D02*
X168306666Y-80841904D01*
X167963809Y-81641904D01*
D11*
%TO.C,U1*%
X163576095Y-113704380D02*
X163576095Y-114513904D01*
X163623714Y-114609142D01*
X163671333Y-114656761D01*
X163766571Y-114704380D01*
X163957047Y-114704380D01*
X164052285Y-114656761D01*
X164099904Y-114609142D01*
X164147523Y-114513904D01*
X164147523Y-113704380D01*
X165147523Y-114704380D02*
X164576095Y-114704380D01*
X164861809Y-114704380D02*
X164861809Y-113704380D01*
X164766571Y-113847238D01*
X164671333Y-113942476D01*
X164576095Y-113990095D01*
%TO.C,J1*%
X130008380Y-86947333D02*
X130722666Y-86947333D01*
X130865523Y-86994952D01*
X130960761Y-87090190D01*
X131008380Y-87233047D01*
X131008380Y-87328285D01*
X131008380Y-85947333D02*
X131008380Y-86518761D01*
X131008380Y-86233047D02*
X130008380Y-86233047D01*
X130151238Y-86328285D01*
X130246476Y-86423523D01*
X130294095Y-86518761D01*
D14*
%TO.C,U1*%
X162860000Y-118204000D02*
X162860000Y-112254000D01*
X136910000Y-112204000D02*
X136910000Y-118204000D01*
X136910000Y-118204000D02*
X162860000Y-118204000D01*
X162860000Y-112254000D02*
X136860000Y-112254000D01*
%TO.C,J1*%
X130810000Y-85150000D02*
X171510000Y-85150000D01*
X129540000Y-85150000D02*
X128210000Y-85150000D01*
X130810000Y-85150000D02*
X130810000Y-82490000D01*
X128210000Y-85150000D02*
X128210000Y-83820000D01*
X171510000Y-85150000D02*
X171510000Y-82490000D01*
X130810000Y-82490000D02*
X171510000Y-82490000D01*
%TD*%
M02*
